<svg width="1440" height="804" viewBox="0 0 1440 804" fill="none" xmlns="http://www.w3.org/2000/svg">
    <path opacity="0.4" d="M1457.45 -136.634C1454.35 -138.455 1449.33 -138.455 1446.24 -136.634C1443.91 -135.267 1443.34 -133.268 1444.51 -131.598L1270.8 -30.0271V98.1892L1228.48 122.937V262.388L1083.53 347.157L1060.94 333.948L1172.72 268.588V192.144L1172.27 191.891L1045.18 117.572V91.6354L1117.05 49.6052C1120.15 50.921 1124.5 50.7692 1127.3 49.1497C1130.4 47.3278 1130.4 44.3925 1127.3 42.5959C1124.2 40.774 1119.18 40.774 1116.08 42.5959C1113.28 44.2407 1113.03 46.7711 1115.28 48.593L1043.4 90.6232V118.635L1043.85 118.888L1170.94 193.206V267.575L1086.5 316.969V285.111L1125.22 262.464C1128.32 263.78 1132.67 263.628 1135.47 262.008C1138.57 260.187 1138.57 257.251 1135.47 255.455C1132.37 253.633 1127.35 253.633 1124.25 255.455C1121.45 257.099 1121.2 259.63 1123.45 261.452L1084.73 284.099V318.032L1059.19 332.961L1028.99 315.299V259.832L1085.95 226.507V188.171L1085.5 187.918L965.556 117.775C967.804 115.953 967.555 113.422 964.756 111.778C961.659 109.956 956.637 109.956 953.539 111.778C950.441 113.599 950.441 116.535 953.539 118.331C956.337 119.976 960.684 120.103 963.782 118.787L1084.15 189.183V225.444L1028.96 257.732V219.497L1028.51 219.244L955.138 176.328C957.386 174.507 957.136 171.976 954.338 170.331C951.24 168.509 946.219 168.509 943.121 170.331C940.023 172.153 940.023 175.089 943.121 176.885C945.919 178.53 950.266 178.656 953.364 177.341L1027.19 220.51V314.211L1005.98 301.812L971.027 322.258L939.373 303.735V258.744L938.924 258.491L855.229 209.553V167.143C856.953 167.042 858.627 166.612 859.951 165.827C863.049 164.005 863.049 161.07 859.951 159.273C856.853 157.452 851.832 157.452 848.734 159.273C845.636 161.095 845.636 164.031 848.734 165.827C850.058 166.612 851.732 167.017 853.456 167.143V210.59L853.905 210.843L937.6 259.782V302.698L801.39 223.04V138.6L875.266 95.4057H943.071L943.271 95.2792L1059.62 27.2616C1062.72 28.5774 1067.06 28.4256 1069.86 26.8061C1072.96 24.9842 1072.96 22.0489 1069.86 20.2523C1066.76 18.4304 1061.74 18.4304 1058.64 20.2523C1055.85 21.8971 1055.6 24.4275 1057.84 26.2494L942.596 93.6344H878.339L1092.07 -31.3429C1095.17 -30.0271 1099.52 -30.1789 1102.31 -31.7984C1105.41 -33.6203 1105.41 -36.5555 1102.31 -38.3521C1099.22 -40.174 1094.2 -40.174 1091.1 -38.3521C1088.3 -36.7074 1088.05 -34.1769 1090.3 -32.355L799.617 137.613V224.128L800.066 224.381L969.278 323.32L935.226 343.235L646.319 174.304V73.4923L645.869 73.2393L547.61 15.7988C549.858 13.9769 549.608 11.4465 546.81 9.8017C543.712 7.9798 538.691 7.9798 535.593 9.8017C532.495 11.6236 532.495 14.5589 535.593 16.3555C538.391 18.0003 542.738 18.1268 545.836 16.811L644.52 74.5298V175.342L644.97 175.595L933.427 344.272L900.999 363.225L615.289 196.142H444.903L338.424 133.868V38.1677C339.548 37.9399 340.598 37.5857 341.497 37.0796C344.595 35.2577 344.595 32.3224 341.497 30.5258C338.399 28.7039 333.378 28.7039 330.28 30.5258C327.182 32.3477 327.182 35.283 330.28 37.0796C332.029 38.0918 334.377 38.522 336.65 38.3954V134.906L337.1 135.159L444.453 197.938H614.84L856.029 338.984H807.511L725.191 290.855H661.784L661.584 290.982L573.642 342.4C570.544 341.084 566.197 341.236 563.399 342.855C560.301 344.677 560.301 347.612 563.399 349.409C566.497 351.231 571.519 351.231 574.617 349.409C577.415 347.764 577.665 345.234 575.416 343.412L662.258 292.626H724.717L807.037 340.755H859.102L899.25 364.237L812.708 414.846L788.099 400.448V362.668L725.516 326.104C727.764 324.282 727.515 321.752 724.717 320.107C721.619 318.285 716.597 318.285 713.499 320.107C710.401 321.929 710.401 324.864 713.499 326.661C716.297 328.305 720.644 328.432 723.742 327.116L786.25 363.681V399.385L719.595 360.391H688.016L687.816 360.518L650.166 382.532C647.068 381.216 642.721 381.368 639.923 382.988C636.825 384.81 636.825 387.745 639.923 389.542C643.021 391.363 648.043 391.363 651.141 389.542C653.939 387.897 654.189 385.366 651.94 383.544L688.491 362.162H719.095L810.859 415.807L794.195 425.549L847.385 456.648L822.476 471.223H784.802L757.844 455.459C759.993 453.662 759.693 451.157 756.945 449.538C753.847 447.716 748.826 447.716 745.728 449.538C742.63 451.36 742.63 454.295 745.728 456.091C748.551 457.736 752.973 457.863 756.096 456.496L784.327 472.995H819.403L755.871 510.141L606.42 422.741H498.867L498.667 422.867L438.108 458.268C435.01 456.952 430.663 457.104 427.865 458.723C424.767 460.545 424.767 463.48 427.865 465.277C430.963 467.099 435.984 467.099 439.082 465.277C441.88 463.632 442.13 461.102 439.882 459.28L499.342 424.512H605.921L721.194 491.922H671.852L623.634 463.733C625.882 461.911 625.633 459.381 622.835 457.736C619.737 455.914 614.715 455.914 611.617 457.736C608.519 459.558 608.519 462.493 611.617 464.29C614.415 465.935 618.762 466.061 621.86 464.746L671.377 493.719H724.267L754.072 511.153L678.198 555.512H435.684L247.335 445.489C249.584 443.667 249.334 441.137 246.536 439.492C243.438 437.67 238.416 437.67 235.318 439.492C232.22 441.314 232.22 444.249 235.318 446.046C238.116 447.69 242.463 447.817 245.561 446.501L435.26 557.435H675.15L645.045 575.046H465.539L465.34 575.173L376.824 626.945C373.726 625.629 369.379 625.781 366.58 627.401C363.483 629.223 363.483 632.158 366.58 633.955C369.678 635.776 374.7 635.776 377.798 633.955C380.596 632.31 380.846 629.779 378.597 627.957L466.039 576.843H645.544L645.744 576.716L849.183 457.762L871.768 470.97L657.886 596.049H501.465L501.266 596.175L312.342 706.653H50.5912L0 677.048V679.122L50.1166 708.425H312.816L313.016 708.298L431.587 638.965V680.008L353.439 725.707C350.341 724.392 345.994 724.544 343.196 726.163C340.098 727.985 340.098 730.92 343.196 732.717C346.294 734.539 351.316 734.539 354.414 732.717C357.212 731.072 357.462 728.542 355.213 726.72L433.361 681.02V638.155H432.961L501.965 597.795H658.386L658.586 597.668L873.567 471.957L899.225 486.963L482.103 730.87V774.95H483.877V731.907L900.999 488L932.703 506.548L717.546 632.36V654.856L679.397 677.174V728.921L605.421 772.191C602.323 770.875 597.976 771.027 595.178 772.647C594.054 773.305 593.329 774.114 593.029 774.975H608.494C608.269 774.342 607.845 773.76 607.195 773.229L681.171 729.959V678.212L717.546 656.931V739.777L739.007 752.328L700.283 775H703.831L740.731 753.416L777.631 775H781.179L719.245 738.79V633.448L934.402 507.636L963.257 524.514L810.984 613.559C807.886 612.244 803.539 612.395 800.741 614.015C797.643 615.837 797.643 618.772 800.741 620.569C803.839 622.391 808.86 622.391 811.958 620.569C814.757 618.924 815.006 616.393 812.758 614.572L965.031 525.526L992.888 541.822L810.734 648.327H761.242C760.942 647.467 760.218 646.632 759.069 645.949C755.971 644.127 750.949 644.127 747.851 645.949C744.753 647.771 744.753 650.706 747.851 652.503C750.949 654.324 755.971 654.324 759.069 652.503C760.218 651.819 760.942 650.984 761.242 650.124H811.209L811.409 649.997L994.636 542.859L1005.88 549.439L1014.52 544.378L1058.17 569.884V605.411L1022.12 626.49V626.389H965.531L965.331 626.515L903.247 662.827C900.15 661.511 895.802 661.663 893.004 663.282C889.906 665.104 889.906 668.039 893.004 669.836C896.102 671.658 901.124 671.658 904.222 669.836C907.02 668.191 907.27 665.661 905.021 663.839L966.006 628.185H1019.2L913.191 690.155C910.068 688.738 905.596 688.839 902.723 690.509C899.625 692.331 899.625 695.267 902.723 697.063C905.821 698.885 910.842 698.885 913.94 697.063C916.664 695.469 916.988 693.015 914.915 691.193L1047.13 613.888V630.969L968.479 676.972V709.437L904.447 746.887C901.349 745.571 897.002 745.723 894.204 747.343C891.106 749.164 891.106 752.1 894.204 753.896C897.302 755.718 902.323 755.718 905.421 753.896C908.219 752.252 908.469 749.721 906.221 747.899L970.253 710.449V677.984L1048.9 631.981V612.826L1059.92 606.373V568.771L1016.27 543.264L1044.95 526.488L1134.74 578.994V638.686L1073.76 674.34C1070.64 672.923 1066.16 673.024 1063.29 674.694C1060.19 676.516 1060.19 679.451 1063.29 681.248C1066.39 683.07 1071.41 683.07 1074.51 681.248C1077.23 679.654 1077.56 677.199 1075.48 675.378L1134.72 640.736V688.966L1087.92 716.345V774.899H1089.7V717.382L1134.72 691.041V774.874H1136.49V577.931L1046.7 525.425L1078.91 506.599L1196.28 575.224V738.689L1252.69 771.685V775H1254.46V770.749L1198.05 737.752V574.287L1080.68 505.662L1104.54 491.695L1262.93 584.308V723.759L1401.5 804H1406L1264.86 722.747V583.296L1106.46 490.682L1145.14 468.06L1408.69 622.163V691.547L1499 744.357V742.282L1410.46 690.509V621.125L1262.23 534.433H1379.45L1499 604.349V602.274L1379.93 532.637H1259.16L1146.93 467.023L1191.9 440.732L1288.37 497.135H1443.26L1499 529.727V527.652L1486.78 520.516H1499V518.719H1483.71L1443.74 495.338H1288.84L1261.83 479.548H1327.69L1327.89 479.422L1360.92 460.115H1498.53L1498.98 460.393V458.318H1363.97L1401.14 436.582C1404.24 437.898 1408.59 437.746 1411.38 436.126C1414.48 434.305 1414.48 431.369 1411.38 429.573C1408.29 427.751 1403.26 427.751 1400.17 429.573C1397.37 431.217 1397.12 433.748 1399.37 435.57L1327.16 477.802H1258.71L1193.6 439.745L1217.66 425.676L1202.17 416.617H1247.17L1305.98 451.005C1303.73 452.827 1303.98 455.358 1306.78 457.002C1309.88 458.824 1314.9 458.824 1318 457.002C1321.09 455.181 1321.09 452.245 1318 450.449C1315.2 448.804 1310.85 448.677 1307.75 449.993L1247.64 414.846H1199.1L1166.17 395.589L1186.41 383.747H1222.31L1253.89 365.275H1277.45L1330.66 396.399C1328.26 398.221 1328.46 400.827 1331.31 402.497C1334.41 404.319 1339.43 404.319 1342.53 402.497C1345.63 400.675 1345.63 397.74 1342.53 395.943C1339.78 394.349 1335.56 394.172 1332.46 395.387L1277.92 363.504H1253.41L1221.83 381.976H1189.48L1254.21 344.12H1289.17L1362.02 386.707H1498.95V384.911H1362.49L1289.64 342.324H1253.74L1253.54 342.45L1164.4 394.577L1141.01 380.913L1241.75 322.005H1312.8L1371.41 356.267H1498.98V354.47H1371.91L1316.37 322.005H1498.98V320.208H1241.3L1241.1 320.335L1139.29 379.875L1112.71 364.339L1253.16 282.201H1498.98V280.405H1319.84L1498.98 175.645V173.57L1316.3 280.405H1254.46L1387.62 202.544V185.387L1451.36 148.14C1454.45 149.455 1458.8 149.304 1461.6 147.684C1464.7 145.862 1464.7 142.927 1461.6 141.13C1458.5 139.308 1453.48 139.308 1450.38 141.13C1447.58 142.775 1447.33 145.306 1449.58 147.127L1414.88 167.421V120.381L1499 71.0378V68.9629L1413.11 119.192V168.307L1385.85 184.249V201.405L1251.59 279.924L1252.04 280.708L1110.93 363.225L1085.28 348.22L1230.23 263.451V123.999L1499 -33.1901V-35.265L1272.58 97.1517V-28.9896L1445.89 -130.333C1446.01 -130.257 1446.11 -130.156 1446.24 -130.08C1449.33 -128.258 1454.35 -128.258 1457.45 -130.08C1460.55 -131.902 1460.55 -134.837 1457.45 -136.634ZM1214.17 425.625L1005.95 547.389L797.768 425.651L1005.98 303.887L1214.17 425.625Z" fill="url(#paint0_radial)"/>
    <defs>
        <radialGradient id="paint0_radial" cx="0" cy="0" r="1" gradientUnits="userSpaceOnUse" gradientTransform="translate(1531.48 -0.335464) rotate(180) scale(1097.62 1111.72)">
            <stop stop-color="#FF2C9C"/>
            <stop offset="0.0301" stop-color="#F62F9F"/>
            <stop offset="0.2023" stop-color="#C63EB0"/>
            <stop offset="0.3737" stop-color="#9E4BBE"/>
            <stop offset="0.5413" stop-color="#7F54C9"/>
            <stop offset="0.7039" stop-color="#695BD1"/>
            <stop offset="0.8594" stop-color="#5C60D5"/>
            <stop offset="1" stop-color="#5761D7"/>
        </radialGradient>
    </defs>
</svg>