<?xml version="1.0" encoding="iso-8859-1"?>
<!-- Generator: Adobe Illustrator 19.0.0, SVG Export Plug-In . SVG Version: 6.00 Build 0)  -->
<svg version="1.1" id="Layer_1" xmlns="http://www.w3.org/2000/svg" xmlns:xlink="http://www.w3.org/1999/xlink" x="0px" y="0px"
	 viewBox="0 0 509.287 509.287" style="enable-background:new 0 0 509.287 509.287;" xml:space="preserve">
<circle style="fill:#4F5565;" cx="254.644" cy="254.644" r="254.644"/>
<path style="fill:#DEDEDF;" d="M406.209,81.377H103.078c-7.121,0-12.885,5.764-12.885,12.885v203.783
	c0,7.121,5.764,12.885,12.885,12.885h303.131c7.121,0,12.885-5.764,12.885-12.885V94.601
	C419.433,87.142,413.33,81.377,406.209,81.377z"/>
<rect x="108.503" y="99.009" style="fill:#4485C5;" width="292.62" height="194.967"/>
<path style="fill:#BDBDBE;" d="M464.191,385.526l-43.401-71.544c-1.017-1.695-2.713-2.713-4.747-2.713H93.245
	c-2.034,0-3.73,1.017-4.747,2.713l-43.062,71.544c-2.374,3.73,0.339,8.477,4.747,8.477h409.261
	C463.852,394.003,466.564,389.256,464.191,385.526z"/>
<g>
	<polygon style="fill:#646B79;" points="423.163,345.176 86.464,345.176 98.331,323.815 411.295,323.815 	"/>
	<polygon style="fill:#646B79;" points="288.551,379.762 221.075,379.762 223.788,353.653 285.838,353.653 	"/>
</g>
<path style="fill:#FBD303;" d="M419.094,74.596H306.861c-10.172,0-18.31,8.138-18.31,18.31v67.815c0,10.172,8.138,18.31,18.31,18.31
	h1.695v31.873l31.873-31.873h78.665c10.172,0,18.31-8.138,18.31-18.31V92.906C437.404,82.734,429.266,74.596,419.094,74.596z"/>
<g>
	<circle style="fill:#FCFCFD;" cx="321.441" cy="126.813" r="12.546"/>
	<circle style="fill:#FCFCFD;" cx="363.147" cy="126.813" r="12.546"/>
	<circle style="fill:#FCFCFD;" cx="404.853" cy="126.813" r="12.546"/>
</g>
<g>
</g>
<g>
</g>
<g>
</g>
<g>
</g>
<g>
</g>
<g>
</g>
<g>
</g>
<g>
</g>
<g>
</g>
<g>
</g>
<g>
</g>
<g>
</g>
<g>
</g>
<g>
</g>
<g>
</g>
</svg>
